<svg xmlns="http://www.w3.org/2000/svg" version="1.1" xmlns:xlink="http://www.w3.org/1999/xlink" xmlns:svgjs="http://svgjs.dev/svgjs" width="1000" height="424" viewBox="0 0 1000 424"><g transform="matrix(1,0,0,1,-0.6056006173900528,-0.03952698010047584)"><svg viewBox="0 0 396 168" data-background-color="#ffffff" preserveAspectRatio="xMidYMid meet" height="424" width="1000" xmlns="http://www.w3.org/2000/svg" xmlns:xlink="http://www.w3.org/1999/xlink"><defs></defs><g id="tight-bounds" transform="matrix(1,0,0,1,0.24018215551350863,0.015661633624716842)"><svg viewBox="0 0 395.5199999999999 167.96800053858846" height="167.96800053858846" width="395.5199999999999"><g><svg viewBox="0 0 588.6405057202296 249.98171718712206" height="167.96800053858846" width="395.5199999999999"><g transform="matrix(1,0,0,1,191.14290572022972,77.24797906966452)"><svg viewBox="0 0 397.4975999999999 95.485759047793" height="95.485759047793" width="397.4975999999999"><g><svg viewBox="0 0 397.4975999999999 95.485759047793" height="95.485759047793" width="397.4975999999999"><g><rect width="397.4975999999999" height="5.8557492052426845" x="0" y="71.83140283271848" fill="#e6b17e" opacity="1" stroke-width="0" stroke="transparent" fill-opacity="1" class="rect-o-0" data-fill-palette-color="primary" rx="1%" id="o-0" data-palette-color="#e6b17e"></rect></g><g transform="matrix(1,0,0,1,0.9887999999999693,0)"><svg viewBox="0 0 395.52 64.933268952197" height="64.933268952197" width="395.52"><g transform="matrix(1,0,0,1,0,0)"><svg width="395.52" viewBox="2.0999999046325684 -33.400001525878906 207.07998657226562 34" height="64.933268952197" data-palette-color="#e6b17e"><path d="M13.6 0.6L13.6 0.6Q10.15 0.6 7.2-0.7 4.25-2 2.1-4.25L2.1-4.25 4.6-7.15Q6.35-5.3 8.72-4.17 11.1-3.05 13.65-3.05L13.65-3.05Q16.9-3.05 18.7-4.53 20.5-6 20.5-8.4L20.5-8.4Q20.5-9.65 20.08-10.53 19.65-11.4 18.93-12.03 18.2-12.65 17.2-13.15 16.2-13.65 15.05-14.2L15.05-14.2 10.35-16.25Q9.2-16.75 8-17.45 6.8-18.15 5.85-19.15 4.9-20.15 4.3-21.53 3.7-22.9 3.7-24.7L3.7-24.7Q3.7-26.55 4.48-28.15 5.25-29.75 6.63-30.93 8-32.1 9.88-32.75 11.75-33.4 14-33.4L14-33.4Q16.95-33.4 19.45-32.27 21.95-31.15 23.7-29.35L23.7-29.35 21.45-26.65Q19.95-28.1 18.13-28.93 16.3-29.75 14-29.75L14-29.75Q11.25-29.75 9.58-28.48 7.9-27.2 7.9-24.95L7.9-24.95Q7.9-23.75 8.38-22.93 8.85-22.1 9.65-21.48 10.45-20.85 11.4-20.38 12.35-19.9 13.35-19.5L13.35-19.5 18-17.5Q19.4-16.9 20.65-16.13 21.9-15.35 22.8-14.33 23.7-13.3 24.23-11.93 24.75-10.55 24.75-8.75L24.75-8.75Q24.75-6.8 23.98-5.1 23.2-3.4 21.75-2.13 20.3-0.85 18.25-0.13 16.2 0.6 13.6 0.6ZM50.6 0L31.2 0 31.2-32.8 50.1-32.8 50.1-29.3 35.35-29.3 35.35-19 47.8-19 47.8-15.45 35.35-15.45 35.35-3.55 50.6-3.55 50.6 0ZM66.65 0.6L66.65 0.6Q63.2 0.6 60.25-0.7 57.3-2 55.15-4.25L55.15-4.25 57.65-7.15Q59.4-5.3 61.77-4.17 64.15-3.05 66.7-3.05L66.7-3.05Q69.95-3.05 71.75-4.53 73.55-6 73.55-8.4L73.55-8.4Q73.55-9.65 73.12-10.53 72.7-11.4 71.97-12.03 71.25-12.65 70.25-13.15 69.25-13.65 68.09-14.2L68.09-14.2 63.4-16.25Q62.25-16.75 61.05-17.45 59.84-18.15 58.9-19.15 57.95-20.15 57.34-21.53 56.75-22.9 56.75-24.7L56.75-24.7Q56.75-26.55 57.52-28.15 58.3-29.75 59.67-30.93 61.05-32.1 62.92-32.75 64.8-33.4 67.05-33.4L67.05-33.4Q70-33.4 72.5-32.27 75-31.15 76.75-29.35L76.75-29.35 74.5-26.65Q73-28.1 71.17-28.93 69.34-29.75 67.05-29.75L67.05-29.75Q64.3-29.75 62.62-28.48 60.95-27.2 60.95-24.95L60.95-24.95Q60.95-23.75 61.42-22.93 61.9-22.1 62.7-21.48 63.5-20.85 64.45-20.38 65.4-19.9 66.4-19.5L66.4-19.5 71.05-17.5Q72.45-16.9 73.7-16.13 74.95-15.35 75.84-14.33 76.75-13.3 77.27-11.93 77.8-10.55 77.8-8.75L77.8-8.75Q77.8-6.8 77.02-5.1 76.25-3.4 74.8-2.13 73.34-0.85 71.3-0.13 69.25 0.6 66.65 0.6ZM92.64 0.6L92.64 0.6Q89.19 0.6 86.24-0.7 83.29-2 81.14-4.25L81.14-4.25 83.64-7.15Q85.39-5.3 87.77-4.17 90.14-3.05 92.69-3.05L92.69-3.05Q95.94-3.05 97.74-4.53 99.54-6 99.54-8.4L99.54-8.4Q99.54-9.65 99.12-10.53 98.69-11.4 97.97-12.03 97.24-12.65 96.24-13.15 95.24-13.65 94.09-14.2L94.09-14.2 89.39-16.25Q88.24-16.75 87.04-17.45 85.84-18.15 84.89-19.15 83.94-20.15 83.34-21.53 82.74-22.9 82.74-24.7L82.74-24.7Q82.74-26.55 83.52-28.15 84.29-29.75 85.67-30.93 87.04-32.1 88.92-32.75 90.79-33.4 93.04-33.4L93.04-33.4Q95.99-33.4 98.49-32.27 100.99-31.15 102.74-29.35L102.74-29.35 100.49-26.65Q98.99-28.1 97.17-28.93 95.34-29.75 93.04-29.75L93.04-29.75Q90.29-29.75 88.62-28.48 86.94-27.2 86.94-24.95L86.94-24.95Q86.94-23.75 87.42-22.93 87.89-22.1 88.69-21.48 89.49-20.85 90.44-20.38 91.39-19.9 92.39-19.5L92.39-19.5 97.04-17.5Q98.44-16.9 99.69-16.13 100.94-15.35 101.84-14.33 102.74-13.3 103.27-11.93 103.79-10.55 103.79-8.75L103.79-8.75Q103.79-6.8 103.02-5.1 102.24-3.4 100.79-2.13 99.34-0.85 97.29-0.13 95.24 0.6 92.64 0.6ZM114.39 0L110.24 0 110.24-32.8 114.39-32.8 114.39 0ZM135.49 0.6L135.49 0.6Q132.39 0.6 129.81-0.6 127.24-1.8 125.39-4.03 123.54-6.25 122.51-9.43 121.49-12.6 121.49-16.55L121.49-16.55Q121.49-20.5 122.51-23.63 123.54-26.75 125.39-28.93 127.24-31.1 129.81-32.25 132.39-33.4 135.49-33.4L135.49-33.4Q138.59-33.4 141.16-32.23 143.74-31.05 145.61-28.88 147.49-26.7 148.51-23.58 149.54-20.45 149.54-16.55L149.54-16.55Q149.54-12.6 148.51-9.43 147.49-6.25 145.61-4.03 143.74-1.8 141.16-0.6 138.59 0.6 135.49 0.6ZM135.49-3.05L135.49-3.05Q137.69-3.05 139.46-4 141.24-4.95 142.51-6.73 143.79-8.5 144.49-10.98 145.19-13.45 145.19-16.55L145.19-16.55Q145.19-19.6 144.49-22.05 143.79-24.5 142.51-26.2 141.24-27.9 139.46-28.83 137.69-29.75 135.49-29.75L135.49-29.75Q133.29-29.75 131.51-28.83 129.74-27.9 128.46-26.2 127.19-24.5 126.49-22.05 125.79-19.6 125.79-16.55L125.79-16.55Q125.79-13.45 126.49-10.98 127.19-8.5 128.46-6.73 129.74-4.95 131.51-4 133.29-3.05 135.49-3.05ZM160.54 0L156.59 0 156.59-32.8 160.89-32.8 172.74-12.2 176.29-5.4 176.49-5.4Q176.34-7.9 176.16-10.58 175.99-13.25 175.99-15.85L175.99-15.85 175.99-32.8 179.94-32.8 179.94 0 175.64 0 163.74-20.65 160.19-27.4 159.99-27.4Q160.19-24.9 160.36-22.33 160.54-19.75 160.54-17.15L160.54-17.15 160.54 0ZM198.03 0.6L198.03 0.6Q194.58 0.6 191.63-0.7 188.68-2 186.53-4.25L186.53-4.25 189.03-7.15Q190.78-5.3 193.16-4.17 195.53-3.05 198.08-3.05L198.08-3.05Q201.33-3.05 203.13-4.53 204.93-6 204.93-8.4L204.93-8.4Q204.93-9.65 204.51-10.53 204.08-11.4 203.36-12.03 202.63-12.65 201.63-13.15 200.63-13.65 199.48-14.2L199.48-14.2 194.78-16.25Q193.63-16.75 192.43-17.45 191.23-18.15 190.28-19.15 189.33-20.15 188.73-21.53 188.13-22.9 188.13-24.7L188.13-24.7Q188.13-26.55 188.91-28.15 189.68-29.75 191.06-30.93 192.43-32.1 194.31-32.75 196.18-33.4 198.43-33.4L198.43-33.4Q201.38-33.4 203.88-32.27 206.38-31.15 208.13-29.35L208.13-29.35 205.88-26.65Q204.38-28.1 202.56-28.93 200.73-29.75 198.43-29.75L198.43-29.75Q195.68-29.75 194.01-28.48 192.33-27.2 192.33-24.95L192.33-24.95Q192.33-23.75 192.81-22.93 193.28-22.1 194.08-21.48 194.88-20.85 195.83-20.38 196.78-19.9 197.78-19.5L197.78-19.5 202.43-17.5Q203.83-16.9 205.08-16.13 206.33-15.35 207.23-14.33 208.13-13.3 208.66-11.93 209.18-10.55 209.18-8.75L209.18-8.75Q209.18-6.8 208.41-5.1 207.63-3.4 206.18-2.13 204.73-0.85 202.68-0.13 200.63 0.6 198.03 0.6Z" opacity="1" transform="matrix(1,0,0,1,0,0)" fill="#e6b17e" class="undefined-text-0" data-fill-palette-color="primary" id="text-0"></path></svg></g></svg></g><g transform="matrix(1,0,0,1,0,84.58528591848265)"><svg viewBox="0 0 232.20979200000002 10.900473129310344" height="10.900473129310344" width="232.20979200000002"><g transform="matrix(1,0,0,1,0,0)"><svg width="232.20979200000002" viewBox="2.700000047683716 -33.650001525878906 742.3499755859375 34.85000228881836" height="10.900473129310344" data-palette-color="#e6b17e"><path d="M3.65 0.05Q3 0.05 2.75-0.95L2.75-0.95Q2.7-1.1 2.7-1.45L2.7-1.45Q2.7-1.95 2.9-2.95L2.9-2.95Q3-3.6 3.08-3.98 3.15-4.35 3.2-4.55L3.2-4.55Q4.7-11.6 6.15-16.95L6.15-16.95 9.65-32.75Q9.65-32.85 9.8-33.05 9.95-33.25 10.15-33.3L10.15-33.3 10.4-33.3Q10.4-33.25 10.55-33.25L10.55-33.25Q11.15-33.25 11.9-33.4L11.9-33.4Q12.65-33.55 13.25-33.55L13.25-33.55Q14.35-33.55 15.3-33.4L15.3-33.4Q15.75-33.4 16.3-33.35 16.85-33.3 17.45-33.3L17.45-33.3Q17.65-33.3 17.9-33.4L17.9-33.4 18.8-33.4 19.95-33.4 21.15-33.45Q21.5-33.5 22-33.5L22-33.5Q22.4-33.5 22.4-33.55L22.4-33.55 23.2-33.55 24.9-33.55 27-33.55Q29.8-33.55 30.7-33.45L30.7-33.45Q30.85-33.45 31.13-33.43 31.4-33.4 31.45-33.3L31.45-33.3Q31.8-33.3 32.15-33.35 32.5-33.4 32.8-33.4L32.8-33.4Q33.5-33.55 34.15-33.55L34.15-33.55Q34.45-33.55 34.75-33.4L34.75-33.4Q35.05-33.25 35.4-33.25L35.4-33.25 35.65-33.3 35.8-33.3Q35.95-33.2 36.13-33.02 36.3-32.85 36.3-32.75L36.3-32.75 39.8-16.95Q41.4-11.1 42.7-4.55L42.7-4.55Q42.7-4.25 42.9-3.9L42.9-3.9Q42.95-3.55 43.05-2.95 43.15-2.35 43.15-1.95L43.15-1.95Q43.2-1.75 43.2-1.4L43.2-1.4Q43.2-0.7 42.9-0.25L42.9-0.25Q42.7 0.05 42.3 0.05L42.3 0.05 41.65 0.05Q40.9 0.05 40.5 0L40.5 0 39.2 0 37.95 0 36.95 0Q36.55 0 36.55-0.05L36.55-0.05 33.4-0.05 33.4-0.15Q33.2-0.25 32.9-0.25L32.9-0.25Q32.9-0.25 32.88-0.23 32.85-0.2 32.8-0.15L32.8-0.15Q32.8-0.05 32.7-0.05L32.7-0.05 32.55-0.05 32.15-0.05Q31.9-0.15 31.15-0.15L31.15-0.15Q29.65-0.25 28.8-0.25L28.8-0.25Q28.5-0.7 28.18-2.05 27.85-3.4 27.5-5.05L27.5-5.05Q27.4-5.85 27.3-6.15L27.3-6.15Q26.25-5.95 24.55-5.95L24.55-5.95 23-5.95 21.55-5.95 21.2-4.35Q20.55-1.05 20.15-0.25L20.15-0.25Q19.95-0.25 19.65-0.15L19.65-0.15Q19.55-0.1 19.48-0.08 19.4-0.05 19.4-0.05L19.4-0.05 19.2-0.05Q18.9-0.05 18.75-0.15L18.75-0.15Q18.65-0.25 18.5-0.25L18.5-0.25 16.25-0.15 15.45-0.15 14.7-0.15Q14.5-0.05 14.2-0.05L14.2-0.05 14-0.05 9.4-0.05 8.95-0.05Q8.4 0 6.7 0L6.7 0 5.4 0Q5 0.05 4.25 0.05L4.25 0.05 3.65 0.05ZM26.75-12.2Q26.4-14.65 26.4-14.65L26.4-14.65Q26.25-15.35 25.9-17.3L25.9-17.3Q25.8-17.8 25.4-20L25.4-20Q25-22.4 25-22.4L25-22.4Q24.85-23.4 24.7-24.15L24.7-24.15 24.65-24.8Q24.5-25.05 24.5-25.25L24.5-25.25 24.45-25.55Q24.4-25.45 24.4-25.25L24.4-25.25Q24.4-25.05 24.3-25L24.3-25 24.3-24.8 24.2-24.15Q24.15-23.8 24.08-23.38 24-22.95 23.9-22.45L23.9-22.45 23.65-21.05Q23.1-17.9 23-17.4L23-17.4Q22.95-16.85 22.75-15.75L22.75-15.75Q22.65-15.4 22.55-14.7L22.55-14.7 22.15-12.4 24.7-12.4 25.05-12.5 25.15-12.5Q25.75-12.5 26.05-12.4L26.05-12.4Q26.25-12.4 26.43-12.33 26.6-12.25 26.75-12.2L26.75-12.2ZM78.05 0.05Q76.45 0.05 75.75 0L75.75 0 74 0 72.3 0 70.25 0Q69.85 0 69.45-0.15L69.45-0.15Q68.95-0.3 68.55-0.3L68.55-0.3 68.1-0.25Q67.6-0.4 67.6-0.8L67.6-0.8 64.1-16.65Q62.75-23.4 61.7-29L61.7-29Q61.45-29.2 61.25-30.3L61.25-30.3Q61.2-30.9 61.2-32.15L61.2-32.15Q61.2-32.8 61.42-33.23 61.65-33.65 62.1-33.65L62.1-33.65 62.8-33.65 63.95-33.65Q64.3-33.55 65.2-33.55L65.2-33.55 67.45-33.5 67.85-33.5 70-33.5 70.3-33.45Q70.35-33.4 70.4-33.4 70.45-33.4 70.45-33.4L70.45-33.4 70.5-33.3Q70.55-33.3 70.62-33.35 70.7-33.4 70.8-33.4L70.8-33.4Q71.1-33.5 71.2-33.5L71.2-33.5 71.35-33.5 71.8-33.45Q72.35-33.4 73.95-33.4L73.95-33.4Q74.45-33.3 75.1-33.3L75.1-33.3Q75.35-32.85 75.62-31.75 75.9-30.65 76.2-29.3L76.2-29.3Q76.3-28.55 76.7-26.15L76.7-26.15Q76.85-25.4 77.05-24.25L77.05-24.25 77.35-22.65Q77.35-22.6 77.4-22.48 77.45-22.35 77.45-22.15L77.45-22.15 77.6-21.15Q77.7-20.75 77.8-19.9L77.8-19.9Q77.9-19.65 77.95-19.28 78-18.9 78.05-18.65L78.05-18.65Q78.1-18.4 78.15-18.18 78.2-17.95 78.2-17.7L78.2-17.7 78.3-17.25 78.35-17.05Q78.35-16.9 78.45-16.8L78.45-16.8 78.45-16.5 78.55-16.8 78.55-17.05 78.6-17.25Q78.6-17.4 78.7-17.7L78.7-17.7Q78.7-18.05 78.85-18.65L78.85-18.65Q78.95-18.95 79-19.28 79.05-19.6 79.1-19.9L79.1-19.9 79.3-21.15Q79.4-21.45 79.45-21.75 79.5-22.05 79.5-22.15L79.5-22.15 79.55-22.65Q81-30.2 81.6-32.25L81.6-32.25Q81.65-32.55 81.77-32.83 81.9-33.1 82.2-33.25L82.2-33.25Q82.25-33.35 82.52-33.4 82.8-33.45 82.95-33.5L82.95-33.5Q84-33.65 84.45-33.65L84.45-33.65 85.3-33.65 86.75-33.65 88.5-33.6Q88.95-33.55 89.55-33.55L89.55-33.55 89.7-33.55Q89.75-33.6 89.77-33.63 89.8-33.65 89.8-33.65L89.8-33.65Q90-33.65 90.05-33.55L90.05-33.55Q90.15-33.55 90.17-33.52 90.2-33.5 90.2-33.5L90.2-33.5Q91.1-33.45 92.3-33.45L92.3-33.45Q92.8-33.4 93.35-33.4L93.35-33.4Q93.8-33.4 93.85-33.3L93.85-33.3Q93.9-33.3 94-33.35 94.1-33.4 94.2-33.4L94.2-33.4Q94.3-33.5 94.7-33.5L94.7-33.5 95-33.5 95.6-33.5Q96.4-33.5 96.55-33.3L96.55-33.3Q96.95-31.8 97.2-29.55L97.2-29.55 97.35-28.45Q97.75-25.6 98.2-23.65L98.2-23.65 98.3-23.05Q98.45-22 98.45-21.75L98.45-21.75Q98.5-21.25 98.7-20.15L98.7-20.15Q98.8-19 98.95-18.55L98.95-18.55Q98.95-18 99.05-17.3L99.05-17.3Q99.1-17.05 99.15-16.93 99.2-16.8 99.2-16.75L99.2-16.75Q99.2-16.5 99.25-16.3L99.25-16.3 99.3-16Q99.4-16.25 99.45-16.3L99.45-16.3 99.45-16.75 99.5-17.3 99.7-18.55 99.95-20.15Q100-20.8 100.2-21.75L100.2-21.75 100.35-23.05Q100.4-23.3 100.42-23.45 100.45-23.6 100.45-23.65L100.45-23.65Q100.75-25.05 100.85-25.75L100.85-25.75 101.05-26.8Q101.75-30.5 102.2-31.9L102.2-31.9Q102.35-32.75 102.7-33.3L102.7-33.3Q103-33.3 103.35-33.35 103.7-33.4 104.05-33.4L104.05-33.4Q104.45-33.4 104.95-33.5L104.95-33.5 105.05-33.5Q105.2-33.5 105.2-33.4L105.2-33.4Q105.2-33.4 105.2-33.35 105.2-33.3 105.25-33.3L105.25-33.3Q105.45-33.3 105.55-33.35 105.65-33.4 105.7-33.4L105.7-33.4 105.75-33.5 108.45-33.5 108.8-33.5Q109.35-33.5 109.75-33.55L109.75-33.55 111-33.55Q111.95-33.55 112.3-33.65L112.3-33.65 113.45-33.65 114.2-33.65Q114.6-33.65 114.82-33.2 115.05-32.75 115.05-32.15L115.05-32.15Q114.8-31.5 114.6-30.3L114.6-30.3Q114.55-29.75 114.55-29L114.55-29Q112.9-21.25 111.2-15.15L111.2-15.15 107.7-0.8Q107.25-0.7 107.2-0.5L107.2-0.5 107.2-0.25 106.7-0.3Q106.3-0.3 106.1-0.25L106.1-0.25 105.5-0.2 103-0.2Q101.05-0.2 100.1-0.25L100.1-0.25 97.25-0.25 94.8-0.25 93.35-0.25Q92.85-0.3 91.95-0.3L91.95-0.3 91.45-0.25Q90.95-0.4 90.95-0.8L90.95-0.8 87.6-17.3 84.3-0.8Q84.05 0 82.7 0L82.7 0 80.35 0Q79.7 0.05 78.05 0.05L78.05 0.05ZM122.09-0.2Q121.99-0.2 121.94-0.4L121.94-0.4Q121.59-0.85 121.44-1.5L121.44-1.5Q121.29-1.75 121.19-2.15L121.19-2.15Q120.74-3.05 120.54-4.65L120.54-4.65Q120.34-6.95 120.34-8.3L120.34-8.3Q120.29-8.9 120.29-9.95L120.29-9.95 120.29-11.15Q120.29-12.65 120.24-13.5L120.24-13.5Q120.19-14.4 120.19-17.05L120.19-17.05Q120.19-24.15 120.49-28L120.49-28Q120.49-28.6 122.19-28.9L122.19-28.9 123.69-28.9 124.94-28.9Q127.79-28.9 129.19-28.8L129.19-28.8Q131.29-28.65 133.44-28.65L133.44-28.65Q133.94-28.65 134.19-28.7L134.19-28.7 134.94-28.7 135.19-28.5Q136.84-28.85 138.59-28.95 140.34-29.05 142.84-29.05L142.84-29.05Q142.94-29.05 143.09-28.9L143.09-28.9 144.69-28.9Q145.09-28.9 145.32-28.45 145.54-28 145.69-27.15L145.69-27.15Q145.89-26.5 145.99-25.55L145.99-25.55Q146.19-24.3 146.34-23.9L146.34-23.9Q146.34-22.5 145.84-22.5L145.84-22.5Q145.79-22.5 145.69-22.65L145.69-22.65 145.49-22.7Q145.24-22.75 144.94-22.65L144.94-22.65Q144.64-22.5 144.29-22.5L144.29-22.5Q143.99-22.5 143.79-22.65L143.79-22.65Q143.69-22.7 143.34-22.7L143.34-22.7Q142.89-22.7 142.29-22.55L142.29-22.55Q142.09-22.5 141.52-22.4 140.94-22.3 140.19-22.3L140.19-22.3Q138.04-22.3 137.09-22.2L137.09-22.2Q136.54-22.15 136.04-21.9L136.04-21.9 136.04-22Q135.84-22 135.69-21.5L135.69-21.5Q135.34-20.65 135.24-19.15L135.24-19.15Q135.19-18.7 135.19-18.15L135.19-18.15Q135.19-17.6 135.37-17.4 135.54-17.2 135.94-17.2L135.94-17.2Q136.24-17.2 136.44-17.4L136.44-17.4Q136.54-17.4 136.69-17.35 136.84-17.3 136.94-17.2L136.94-17.2 141.19-17.2Q141.24-17.3 141.34-17.35 141.44-17.4 141.54-17.4L141.54-17.4Q142.04-17.4 142.29-17.25L142.29-17.25Q142.59-17.1 143.49-16.95L143.49-16.95Q143.99-16.95 144.19-16.65L144.19-16.65Q144.44-16.3 144.44-16L144.44-16 145.49-12.7Q145.64-11.9 143.99-11.65L143.99-11.65Q143.04-11.45 140.34-11.45L140.34-11.45 138.19-11.45 136.69-11.45Q135.99-11.45 135.64-11.38 135.29-11.3 135.19-11L135.19-11Q134.99-10.75 134.99-10.2L134.99-10.2 134.99-10Q134.99-9.75 135.04-9.65L135.04-9.65 134.99-8.55Q134.94-8.2 134.94-7.5L134.94-7.5 134.94-7 134.94-6.55 134.94-6.25Q137.19-6.25 139.54-6.4L139.54-6.4Q141.84-6.55 144.09-6.55L144.09-6.55Q144.24-6.55 144.34-6.33 144.44-6.1 144.44-5.8L144.44-5.8Q144.54-5.5 144.54-5.15L144.54-5.15Q144.64-4.4 144.84-3.75L144.84-3.75 145.19-2.3 145.19-1.3 145.19-1.15 145.19-0.75 144.79-0.4 144.44-0.4 144.29-0.4Q143.74-0.4 143.59-0.45L143.59-0.45Q143.44-0.55 143.24-0.55L143.24-0.55Q143.14-0.5 142.94-0.4 142.74-0.3 142.59-0.2L142.59-0.2 142.59-0.45 141.99-0.4 141.24-0.4Q141.04-0.4 140.94-0.5L140.94-0.5 140.54-0.55Q138.69-0.55 137.94-0.2L137.94-0.2 122.09-0.2ZM166.34 0.3L165.64 0.25 164.99 0.15 164.19 0.15Q163.44 0.05 161.59-0.05L161.59-0.05Q161.19-0.05 160.84-0.1 160.49-0.15 160.19-0.15L160.19-0.15 159.09-0.15 158.59-0.2Q156.99-0.2 156.24-0.15L156.24-0.15Q155.49-0.05 153.89-0.05L153.89-0.05 152.89-0.05 151.99 0 151.84-0.2 151.84-0.75 151.84-2 151.84-3.3 151.84-4.15 151.84-7.55Q151.84-8.75 151.74-9.3L151.74-9.3 151.74-10.5 151.94-12.65Q152.09-14.65 152.09-18.4L152.09-18.4Q152.19-24.45 152.84-27.15L152.84-27.15Q153.19-28.6 153.99-29L153.99-29 159.84-28.95Q160.59-28.9 161.99-28.9L161.99-28.9 164.39-28.9Q164.64-28.85 165.32-28.8 165.99-28.75 166.34-28.55L166.34-28.55Q166.64-28.3 166.77-27.88 166.89-27.45 166.89-26.65L166.89-26.65 166.84-26.25 166.84-25.65Q166.69-25.3 166.69-24.95L166.69-24.95Q166.59-24.55 166.64-24.15L166.64-24.15 166.64-23.4Q166.69-23.15 166.69-22.7L166.69-22.7 166.74-22.3 166.74-21.15 166.79-19.55Q166.84-19.05 166.84-18.15L166.84-18.15Q166.94-17.45 167.09-17.2L167.09-17.2Q167.09-16.85 167.04-16.45 166.99-16.05 166.99-15.65L166.99-15.65Q166.94-15.05 166.94-13.85L166.94-13.85Q166.94-12.7 166.99-12.15L166.99-12.15Q166.99-11.35 167.24-10.5L167.24-10.5Q167.74-10.3 168.39-10.3L168.39-10.3Q170.04-10.3 171.82-10.35 173.59-10.4 174.99-10.65L174.99-10.65Q175.29-10.6 175.57-10.25 175.84-9.9 175.84-9.65L175.84-9.65 175.49-1.05Q175.39-0.75 175.09-0.65L175.09-0.65Q174.24-0.25 172.74-0.15L172.74-0.15Q170.74 0.15 170.09 0.15L170.09 0.15 169.24 0.15Q168.24 0.15 167.74 0.2L167.74 0.2Q166.74 0.3 166.34 0.3L166.34 0.3ZM194.59 0.3L193.89 0.25 193.24 0.15 192.44 0.15Q191.69 0.05 189.84-0.05L189.84-0.05Q189.44-0.05 189.09-0.1 188.74-0.15 188.44-0.15L188.44-0.15 187.34-0.15 186.84-0.2Q185.24-0.2 184.49-0.15L184.49-0.15Q183.74-0.05 182.14-0.05L182.14-0.05 181.14-0.05 180.24 0 180.09-0.2 180.09-0.75 180.09-2 180.09-3.3 180.09-4.15 180.09-7.55Q180.09-8.75 179.99-9.3L179.99-9.3 179.99-10.5 180.19-12.65Q180.34-14.65 180.34-18.4L180.34-18.4Q180.44-24.45 181.09-27.15L181.09-27.15Q181.44-28.6 182.24-29L182.24-29 188.09-28.95Q188.84-28.9 190.24-28.9L190.24-28.9 192.64-28.9Q192.89-28.85 193.56-28.8 194.24-28.75 194.59-28.55L194.59-28.55Q194.89-28.3 195.01-27.88 195.14-27.45 195.14-26.65L195.14-26.65 195.09-26.25 195.09-25.65Q194.94-25.3 194.94-24.95L194.94-24.95Q194.84-24.55 194.89-24.15L194.89-24.15 194.89-23.4Q194.94-23.15 194.94-22.7L194.94-22.7 194.99-22.3 194.99-21.15 195.04-19.55Q195.09-19.05 195.09-18.15L195.09-18.15Q195.19-17.45 195.34-17.2L195.34-17.2Q195.34-16.85 195.29-16.45 195.24-16.05 195.24-15.65L195.24-15.65Q195.19-15.05 195.19-13.85L195.19-13.85Q195.19-12.7 195.24-12.15L195.24-12.15Q195.24-11.35 195.49-10.5L195.49-10.5Q195.99-10.3 196.64-10.3L196.64-10.3Q198.29-10.3 200.06-10.35 201.84-10.4 203.24-10.65L203.24-10.65Q203.54-10.6 203.81-10.25 204.09-9.9 204.09-9.65L204.09-9.65 203.74-1.05Q203.64-0.75 203.34-0.65L203.34-0.65Q202.49-0.25 200.99-0.15L200.99-0.15Q198.99 0.15 198.34 0.15L198.34 0.15 197.49 0.15Q196.49 0.15 195.99 0.2L195.99 0.2Q194.99 0.3 194.59 0.3L194.59 0.3ZM213.59 0.15L212.89 0.15 212.09 0.15 211.34 0.15 210.94 0.15 208.99-0.4 208.89-0.7Q208.84-0.7 208.84-1.2L208.84-1.2Q208.84-1.85 208.79-2.25L208.79-2.25 208.74-4.15Q208.69-4.75 208.69-6.05L208.69-6.05Q208.69-7.3 208.64-7.9L208.64-7.9 208.64-9.4Q208.34-12.55 208.34-15.9L208.34-15.9 208.34-16.3 208.34-17.05Q208.34-17.65 208.39-17.9L208.39-17.9 208.39-18.3 208.39-18.65Q208.34-18.8 208.34-19.15L208.34-19.15 208.34-19.7 208.34-20 208.34-20.5 208.34-21.3Q208.34-21.9 208.39-22.15L208.39-22.15 208.39-22.65 208.44-22.9 208.44-23.55Q208.49-24.05 208.49-24.9L208.49-24.9Q208.49-25.55 208.44-26.05L208.44-26.05 208.39-27.2 208.34-27.4Q208.19-27.5 208.34-27.55L208.34-27.55Q208.54-28.35 209.59-28.7L209.59-28.7Q210.09-28.9 211.24-28.9L211.24-28.9Q212.09-28.9 215.69-29.05L215.69-29.05Q217.49-29.15 217.94-29.15L217.94-29.15Q218.69-29.2 219.74-29.2L219.74-29.2Q220.24-29.15 220.44-29.03 220.64-28.9 220.81-28.6 220.99-28.3 221.09-28.15L221.09-28.15 222.09-26.7Q222.04-26.75 223.34-24.9L223.34-24.9Q224.54-22.95 226.24-20.5L226.24-20.5Q226.49-20.1 226.84-19.6 227.19-19.1 227.59-18.45L227.59-18.45 227.59-20.2Q227.64-20.9 227.64-22.2L227.64-22.2Q227.64-23.9 227.74-26L227.74-26Q227.74-26.4 227.79-26.73 227.84-27.05 227.84-27.25L227.84-27.25Q227.84-27.75 227.89-27.75L227.89-27.75Q228.09-28.05 228.59-28.4L228.59-28.4Q229.19-28.8 229.84-28.75L229.84-28.75 232.34-28.75 232.84-28.75Q233.59-28.75 234.09-28.7L234.09-28.7 235.59-28.7Q236.09-28.65 237.09-28.65L237.09-28.65 238.19-28.65 238.69-28.65Q239.69-28.65 240.19-28.3L240.19-28.3Q240.49-28.1 240.59-27.78 240.69-27.45 240.69-26.8L240.69-26.8Q240.69-26.15 240.64-25.7L240.64-25.7Q240.59-25.2 240.59-24.5L240.59-24.5 240.59-24.15Q240.64-24 240.64-23.7L240.64-23.7 240.64-22.4 240.59-16.65 240.59-11 240.59-9.65Q240.59-4.25 240.49-2.8L240.49-2.8 240.34-1.15Q240.09 0 239.64 0.05L239.64 0.05Q239.54 0.05 239.36 0.1 239.19 0.15 238.99 0.15L238.99 0.15Q237.19 0.15 236.34 0.05L236.34 0.05 233.74 0.05 231.14 0.05 230.49 0.05Q230.34 0.1 230.09 0.1L230.09 0.1Q229.49 0.1 228.84-0.15L228.84-0.15Q228.44-0.25 227.99-0.7L227.99-0.7 223.59-6.9Q223.34-7.25 222.64-8.05L222.64-8.05 221.99-8.65Q221.74-8.9 221.59-8.9L221.59-8.9Q221.44-8.9 221.34-8.78 221.24-8.65 221.24-8.55L221.24-8.55 221.24-7.7Q221.19-7.3 221.19-6.45L221.19-6.45 221.19-5Q221.14-4.45 221.14-3.5L221.14-3.5 221.14-2.3 221.14-1.55Q221.09-1.45 221.09-1.25L221.09-1.25Q221.09-1.2 220.94-0.45L220.94-0.45Q220.84-0.25 220.79-0.2 220.74-0.15 220.44-0.15L220.44-0.15Q220.34-0.2 220.26-0.2 220.19-0.2 220.14-0.2L220.14-0.2Q216.19 0.15 213.59 0.15L213.59 0.15ZM248.38-0.2Q248.28-0.2 248.23-0.4L248.23-0.4Q247.88-0.85 247.73-1.5L247.73-1.5Q247.58-1.75 247.48-2.15L247.48-2.15Q247.03-3.05 246.83-4.65L246.83-4.65Q246.63-6.95 246.63-8.3L246.63-8.3Q246.58-8.9 246.58-9.95L246.58-9.95 246.58-11.15Q246.58-12.65 246.53-13.5L246.53-13.5Q246.48-14.4 246.48-17.05L246.48-17.05Q246.48-24.15 246.78-28L246.78-28Q246.78-28.6 248.48-28.9L248.48-28.9 249.98-28.9 251.23-28.9Q254.08-28.9 255.48-28.8L255.48-28.8Q257.58-28.65 259.73-28.65L259.73-28.65Q260.23-28.65 260.48-28.7L260.48-28.7 261.23-28.7 261.48-28.5Q263.13-28.85 264.88-28.95 266.63-29.05 269.13-29.05L269.13-29.05Q269.23-29.05 269.38-28.9L269.38-28.9 270.98-28.9Q271.38-28.9 271.61-28.45 271.83-28 271.98-27.15L271.98-27.15Q272.18-26.5 272.28-25.55L272.28-25.55Q272.48-24.3 272.63-23.9L272.63-23.9Q272.63-22.5 272.13-22.5L272.13-22.5Q272.08-22.5 271.98-22.65L271.98-22.65 271.78-22.7Q271.53-22.75 271.23-22.65L271.23-22.65Q270.93-22.5 270.58-22.5L270.58-22.5Q270.28-22.5 270.08-22.65L270.08-22.65Q269.98-22.7 269.63-22.7L269.63-22.7Q269.18-22.7 268.58-22.55L268.58-22.55Q268.38-22.5 267.81-22.4 267.23-22.3 266.48-22.3L266.48-22.3Q264.33-22.3 263.38-22.2L263.38-22.2Q262.83-22.15 262.33-21.9L262.33-21.9 262.33-22Q262.13-22 261.98-21.5L261.98-21.5Q261.63-20.65 261.53-19.15L261.53-19.15Q261.48-18.7 261.48-18.15L261.48-18.15Q261.48-17.6 261.66-17.4 261.83-17.2 262.23-17.2L262.23-17.2Q262.53-17.2 262.73-17.4L262.73-17.4Q262.83-17.4 262.98-17.35 263.13-17.3 263.23-17.2L263.23-17.2 267.48-17.2Q267.53-17.3 267.63-17.35 267.73-17.4 267.83-17.4L267.83-17.4Q268.33-17.4 268.58-17.25L268.58-17.25Q268.88-17.1 269.78-16.95L269.78-16.95Q270.28-16.95 270.48-16.65L270.48-16.65Q270.73-16.3 270.73-16L270.73-16 271.78-12.7Q271.93-11.9 270.28-11.65L270.28-11.65Q269.33-11.45 266.63-11.45L266.63-11.45 264.48-11.45 262.98-11.45Q262.28-11.45 261.93-11.38 261.58-11.3 261.48-11L261.48-11Q261.28-10.75 261.28-10.2L261.28-10.2 261.28-10Q261.28-9.75 261.33-9.65L261.33-9.65 261.28-8.55Q261.23-8.2 261.23-7.5L261.23-7.5 261.23-7 261.23-6.55 261.23-6.25Q263.48-6.25 265.83-6.4L265.83-6.4Q268.13-6.55 270.38-6.55L270.38-6.55Q270.53-6.55 270.63-6.33 270.73-6.1 270.73-5.8L270.73-5.8Q270.83-5.5 270.83-5.15L270.83-5.15Q270.93-4.4 271.13-3.75L271.13-3.75 271.48-2.3 271.48-1.3 271.48-1.15 271.48-0.75 271.08-0.4 270.73-0.4 270.58-0.4Q270.03-0.4 269.88-0.45L269.88-0.45Q269.73-0.55 269.53-0.55L269.53-0.55Q269.43-0.5 269.23-0.4 269.03-0.3 268.88-0.2L268.88-0.2 268.88-0.45 268.28-0.4 267.53-0.4Q267.33-0.4 267.23-0.5L267.23-0.5 266.83-0.55Q264.98-0.55 264.23-0.2L264.23-0.2 248.38-0.2ZM284.53 1.15L283.93 1 282.78 0.8Q281.13 0.55 280.03 0.2L280.03 0.2Q279.43 0.15 278.98-0.15L278.98-0.15Q278.58-0.3 278.48-0.55L278.48-0.55 277.38-6.75 277.38-7Q277.38-7.35 277.46-7.53 277.53-7.7 277.78-7.75L277.78-7.75Q281.03-6.5 284.18-6.5L284.18-6.5Q285.18-6.5 285.73-6.45L285.73-6.45Q287.63-6.45 288.48-6.95L288.48-6.95Q288.93-7.25 288.93-7.8L288.93-7.8Q288.93-8.6 288.43-9.13 287.93-9.65 286.98-10.05L286.98-10.05 285.38-10.65Q284.68-10.8 283.78-11.2L283.78-11.2Q283.78-11.25 283.73-11.28 283.68-11.3 283.63-11.4L283.63-11.4Q283.43-11.45 282.78-11.9L282.78-11.9 282.48-12.05Q282.58-12.05 282.58-12.1 282.58-12.15 282.43-12.2L282.43-12.2Q282.28-12.3 281.86-12.53 281.43-12.75 281.13-13.05L281.13-13.05Q280.68-13.3 280.68-13.65L280.68-13.65 280.68-13.9Q279.43-13.9 278.53-16.5L278.53-16.5Q277.78-19.15 277.78-20.25L277.78-20.25Q277.78-24.9 281.78-27.4L281.78-27.4Q285.03-29.45 290.73-30.15L290.73-30.15Q294.43-30.55 299.93-30.55L299.93-30.55Q300.63-30.3 301.03-30.25L301.03-30.25Q301.93-30.2 302.23-29.65L302.23-29.65Q302.38-29.4 302.48-28.65L302.48-28.65Q302.63-27.85 302.78-24L302.78-24Q302.88-23.9 302.88-23.7L302.88-23.7Q302.88-23.3 301.78-23.05L301.78-23.05Q300.58-22.9 300.23-22.9L300.23-22.9 299.08-22.75Q297.13-22.5 296.53-22.4L296.53-22.4Q294.48-22.05 293.68-21.15L293.68-21.15Q293.18-20.55 293.18-19.9L293.18-19.9Q293.18-19.55 293.28-19.35 293.38-19.15 293.78-18.9L293.78-18.9Q294.23-18.65 296.38-17.65L296.38-17.65Q298.68-16.65 300.98-15.05L300.98-15.05Q302.93-13.7 303.78-11.45L303.78-11.45Q304.23-10.5 304.23-8.95L304.23-8.95Q304.23-7.55 303.88-6.55L303.88-6.55Q302.58-3.25 298.98-1.15L298.98-1.15Q297.28-0.15 295.43 0.43 293.58 1 291.88 1L291.88 1 284.53 1.15ZM315.53 1.15L314.93 1 313.78 0.8Q312.13 0.55 311.03 0.2L311.03 0.2Q310.43 0.15 309.98-0.15L309.98-0.15Q309.58-0.3 309.48-0.55L309.48-0.55 308.38-6.75 308.38-7Q308.38-7.35 308.45-7.53 308.53-7.7 308.78-7.75L308.78-7.75Q312.03-6.5 315.18-6.5L315.18-6.5Q316.18-6.5 316.73-6.45L316.73-6.45Q318.63-6.45 319.48-6.95L319.48-6.95Q319.93-7.25 319.93-7.8L319.93-7.8Q319.93-8.6 319.43-9.13 318.93-9.65 317.98-10.05L317.98-10.05 316.38-10.65Q315.68-10.8 314.78-11.2L314.78-11.2Q314.78-11.25 314.73-11.28 314.68-11.3 314.63-11.4L314.63-11.4Q314.43-11.45 313.78-11.9L313.78-11.9 313.48-12.05Q313.58-12.05 313.58-12.1 313.58-12.15 313.43-12.2L313.43-12.2Q313.28-12.3 312.85-12.53 312.43-12.75 312.13-13.05L312.13-13.05Q311.68-13.3 311.68-13.65L311.68-13.65 311.68-13.9Q310.43-13.9 309.53-16.5L309.53-16.5Q308.78-19.15 308.78-20.25L308.78-20.25Q308.78-24.9 312.78-27.4L312.78-27.4Q316.03-29.45 321.73-30.15L321.73-30.15Q325.43-30.55 330.93-30.55L330.93-30.55Q331.63-30.3 332.03-30.25L332.03-30.25Q332.93-30.2 333.23-29.65L333.23-29.65Q333.38-29.4 333.48-28.65L333.48-28.65Q333.63-27.85 333.78-24L333.78-24Q333.88-23.9 333.88-23.7L333.88-23.7Q333.88-23.3 332.78-23.05L332.78-23.05Q331.58-22.9 331.23-22.9L331.23-22.9 330.08-22.75Q328.13-22.5 327.53-22.4L327.53-22.4Q325.48-22.05 324.68-21.15L324.68-21.15Q324.18-20.55 324.18-19.9L324.18-19.9Q324.18-19.55 324.28-19.35 324.38-19.15 324.78-18.9L324.78-18.9Q325.23-18.65 327.38-17.65L327.38-17.65Q329.68-16.65 331.98-15.05L331.98-15.05Q333.93-13.7 334.78-11.45L334.78-11.45Q335.23-10.5 335.23-8.95L335.23-8.95Q335.23-7.55 334.88-6.55L334.88-6.55Q333.58-3.25 329.98-1.15L329.98-1.15Q328.28-0.15 326.43 0.43 324.58 1 322.88 1L322.88 1 315.53 1.15ZM358.82 0.15Q358.32 0.15 358.02 0.05L358.02 0.05 357.02 0.05 356.12 0.05 355.77 0.05 353.52-0.5 353.32-0.9Q353.27-0.9 353.27-1.45L353.27-1.45Q353.27-2.15 353.22-2.6L353.22-2.6 353.17-4.9Q353.12-5.65 353.12-7.15L353.12-7.15 353.02-11Q353.02-12.25 353.12-14.45L353.12-14.45 353.17-16.15Q353.27-17.75 353.27-21.4L353.27-21.4 353.27-21.75 353.27-22.4Q353.17-22.55 353.17-22.95L353.17-22.95 353.12-23.3Q353.12-24.55 353.27-25.9L353.27-25.9Q353.37-27.6 353.37-29L353.37-29 353.32-30.4Q353.27-30.95 353.27-31.7L353.27-31.7Q353.27-31.75 353.2-31.85 353.12-31.95 353.12-32.05L353.12-32.05Q353.12-32.55 353.52-32.9 353.92-33.25 354.52-33.4L354.52-33.4Q355.32-33.65 356.57-33.65L356.57-33.65 365.02-33.65 368.92-33.65Q368.97-33.65 369.07-33.55 369.17-33.45 369.27-33.4L369.27-33.4Q369.67-33.05 370.27-32.05L370.27-32.05Q370.42-31.75 370.6-31.38 370.77-31 371.07-30.2L371.07-30.2Q371.42-29.4 372.02-27.75L372.02-27.75 372.62-26.2Q373.02-25.45 373.52-24.05L373.52-24.05Q373.67-23.65 373.85-23.25 374.02-22.85 374.17-22.45L374.17-22.45Q374.27-22.1 374.4-21.93 374.52-21.75 374.52-21.7L374.52-21.7Q374.87-20.9 375.27-20.9L375.27-20.9Q375.77-20.9 376.07-21.7L376.07-21.7Q376.12-21.75 376.17-21.93 376.22-22.1 376.42-22.5L376.42-22.5 377.17-24.15 379.17-28.4 380.02-30.2Q380.17-30.6 380.25-30.88 380.32-31.15 380.42-31.25L380.42-31.25Q380.62-31.7 381.37-32.8L381.37-32.8Q381.62-33.2 381.82-33.4L381.82-33.4Q381.97-33.45 382.02-33.55 382.07-33.65 382.17-33.65L382.17-33.65 386.07-33.65 394.52-33.65 395.27-33.65 395.77-33.65 396.42-33.65 397.52-33.65Q397.62-33.65 397.77-32.9L397.77-32.9 397.92-28Q398.02-25.9 398.02-21.4L398.02-21.4 398.02-18.5Q398.02-16.8 397.87-14.7 397.72-12.6 397.67-12L397.67-12 397.57-11 397.57-9.25Q397.62-8.55 397.62-7.15L397.62-7.15Q397.62-5.65 397.67-4.9L397.67-4.9Q397.67-3.45 397.77-2.9L397.77-2.9 397.77-1.45 397.77-0.9 397.62-0.5 395.37 0.05 395.02 0.05 394.12 0.05 393.12 0.05Q392.77 0.15 392.27 0.15L392.27 0.15Q391.37 0.15 389.77 0.05L389.77 0.05 388.52 0Q388.17-0.05 387.72-0.1 387.27-0.15 386.62-0.15L386.62-0.15 384.67-0.3Q384.57-0.3 384.52-0.25L384.52-0.25 384.12-0.25Q383.87-0.25 383.82-0.8L383.82-0.8Q383.52-1.8 383.52-4.2L383.52-4.2Q383.52-5.8 383.47-6.7L383.47-6.7 383.42-9.4Q383.37-10.3 383.37-12L383.37-12Q383.37-12.4 383.02-12.4L383.02-12.4Q382.82-12.4 382.62-11.9L382.62-11.9 382.07-10.55 381.62-9.3Q381.52-9 381.42-8.7 381.32-8.4 381.17-8.15L381.17-8.15 380.92-7.55Q380.47-6.55 379.77-5.3L379.77-5.3Q379.02-3.95 377.92-3.15L377.92-3.15Q377.32-2.8 376.87-2.8L376.87-2.8 376.12-2.8Q375.52-2.8 375.12-2.9L375.12-2.9 374.02-2.9 373.02-2.9Q371.02-6.1 369.27-9.9L369.27-9.9 368.52-11.75Q368.22-12.4 368.12-12.4L368.12-12.4Q367.77-12.4 367.77-12L367.77-12 367.77-9.65Q367.77-6.15 367.67-4.5L367.67-4.5Q367.57-1.9 367.32-0.9L367.32-0.9Q367.27-0.25 367.02-0.25L367.02-0.25 366.67-0.25 366.42-0.3Q364.72-0.2 363.72-0.1L363.72-0.1Q363.12-0.05 361.62 0.05 360.12 0.15 358.82 0.15L358.82 0.15ZM404.27 0.05Q403.32 0.05 403.52-1.65L403.52-1.65Q403.52-2.25 403.77-3L403.77-3Q403.77-3.35 403.82-3.58 403.87-3.8 403.87-3.95L403.87-3.95Q405.02-9.4 406.42-14.7L406.42-14.7 409.82-28Q409.82-28.1 409.97-28.25 410.12-28.4 410.27-28.5L410.27-28.5 410.62-28.5Q411.22-28.5 411.57-28.65L411.57-28.65Q411.87-28.7 412.62-28.7L412.62-28.7Q413.82-28.7 414.42-28.65L414.42-28.65Q415.32-28.5 416.27-28.5L416.27-28.5 418.87-28.55Q419.27-28.65 419.82-28.65L419.82-28.65 422.02-28.75 423.67-28.75Q424.62-28.75 425.52-28.7L425.52-28.7 426.92-28.7Q427.42-28.65 428.37-28.65L428.37-28.65 430.27-28.65Q430.42-28.65 430.57-28.6 430.72-28.55 430.82-28.5L430.82-28.5Q431.02-28.4 431.32-28.4L431.32-28.4 431.77-28.4Q432.12-28.15 432.12-27.9L432.12-27.9 435.67-14.7Q437.32-8.35 438.27-3.95L438.27-3.95Q438.27-3.7 438.42-3L438.42-3Q438.62-2 438.62-1.4L438.62-1.4Q438.62-1.05 438.52-0.45L438.52-0.45Q438.27 0.05 437.82 0.05L437.82 0.05 437.27 0.05Q436.62 0.05 436.27 0L436.27 0 435.17 0 434.12 0 433.27 0Q432.92 0 432.87-0.05L432.87-0.05 430.12-0.05 430.07-0.15Q429.97-0.25 429.77-0.25L429.77-0.25 429.62-0.15Q429.62-0.05 429.52-0.05L429.52-0.05 429.37-0.05 429.02-0.05Q428.77-0.15 428.12-0.15L428.12-0.15Q426.92-0.25 426.12-0.25L426.12-0.25Q425.57-1.4 424.82-5.3L424.82-5.3Q423.77-5.15 422.42-5.15L422.42-5.15 421.12-5.15 419.87-5.15Q419.67-4.4 419.62-3.9L419.62-3.9Q419.57-3.65 419.22-2.2 418.87-0.75 418.57-0.25L418.57-0.25 418.27-0.15Q418.12-0.1 418.02-0.08 417.92-0.05 417.92-0.05L417.92-0.05 417.82-0.05Q417.52-0.05 417.42-0.15L417.42-0.15Q417.22-0.25 417.17-0.25L417.17-0.25 415.27-0.15 413.87-0.15Q413.62-0.1 413.47-0.08 413.32-0.05 413.27-0.05L413.27-0.05 409.27-0.05 408.87-0.05Q408.42 0 407.02 0L407.02 0 405.82 0Q405.52 0.05 404.87 0.05L404.87 0.05 404.27 0.05ZM424.37-10.65Q424.07-12.35 424.02-12.65L424.02-12.65 423.62-15.05Q423.52-15.75 423.42-16.32 423.32-16.9 423.27-17.4L423.27-17.4Q423.12-18 423.05-18.53 422.97-19.05 422.87-19.5L422.87-19.5Q422.82-19.8 422.77-20.28 422.72-20.75 422.62-20.95L422.62-20.95 422.52-21.55Q422.52-21.75 422.42-21.9L422.42-21.9 422.37-22.2Q422.27-21.9 422.27-21.9L422.27-21.9 422.27-21.7 422.27-21.55Q422.27-21.5 422.22-21.38 422.17-21.25 422.12-20.95L422.12-20.95Q422.07-20.7 422.02-20.33 421.97-19.95 421.87-19.5L421.87-19.5 421.52-17.45 421.12-15.15 420.97-14.05Q420.87-13.65 420.77-12.75L420.77-12.75Q420.32-10.5 420.37-10.7L420.37-10.7 422.57-10.7Q422.62-10.75 422.72-10.83 422.82-10.9 422.87-10.9L422.87-10.9 423.02-10.9Q423.27-10.9 423.44-10.85 423.62-10.8 423.77-10.75L423.77-10.75Q424.07-10.65 424.37-10.65L424.37-10.65ZM467.27 0.55Q465.07-1.6 463.52-3.8L463.52-3.8Q462.42-5.25 460.12-8.95L460.12-8.95 459.27-10.3Q459.22-10.35 459.19-10.38 459.17-10.4 459.17-10.4L459.17-10.4 458.92-10.4 458.72-10.3Q458.67-9.65 458.67-6.8L458.67-6.8Q458.67-4.95 458.47-2.45L458.47-2.45 458.42-0.95Q458.22-0.4 458.17-0.4L458.17-0.4 457.82-0.4 457.67-0.4Q452.17 0 449.67 0L449.67 0 448.92 0 447.97 0Q447.42 0 447.17-0.05L447.17-0.05 446.82-0.05 445.27-0.55 445.17-0.9Q445.07-0.9 445.04-1.1 445.02-1.3 445.02-1.4L445.02-1.4Q444.87-3.5 444.77-4.45L444.77-4.45Q444.57-7.15 444.52-8.4L444.52-8.4Q444.42-9.6 444.42-9.95L444.42-9.95 444.17-12.7 444.12-14.2Q444.07-14.65 444.07-15.45L444.07-15.45 444.07-15.9Q444.17-16.15 444.17-16.7L444.17-16.7 444.17-17.55Q444.22-17.75 444.22-18L444.22-18 444.17-18.4 444.17-18.9Q444.17-19.25 444.07-19.45L444.07-19.45 444.07-19.75 444.12-21Q444.17-21.35 444.17-22.05L444.17-22.05Q444.27-23.55 444.27-24.9L444.27-24.9 444.27-25.4Q444.22-25.55 444.22-26.05L444.22-26.05 444.22-26.75 444.22-27.25Q444.07-27.4 444.07-27.55L444.07-27.55Q444.07-28.25 445.32-28.55L445.32-28.55Q445.97-28.75 447.17-28.75L447.17-28.75Q458.87-28.75 464.67-27.95L464.67-27.95Q470.37-27.15 472.67-25.2L472.67-25.2Q473.67-24.25 474.09-22.98 474.52-21.7 474.52-19.95L474.52-19.95Q474.52-17.15 472.92-15.25L472.92-15.25Q471.87-14.2 470.47-13.5L470.47-13.5Q470.77-12.75 472.22-10.5L472.22-10.5Q472.52-10.15 472.79-9.75 473.07-9.35 473.47-8.9L473.47-8.9Q474.42-7.6 475.67-6.05L475.67-6.05Q475.72-5.85 476.07-5.2L476.07-5.2Q476.32-5.1 476.34-4.98 476.37-4.85 476.27-4.65L476.27-4.65Q475.87-4.05 473.92-2.9L473.92-2.9Q473.67-2.65 473.32-2.4L473.32-2.4Q472.32-1.6 470.57-0.75L470.57-0.75Q468.97 0.1 467.82 0.45L467.82 0.45Q467.37 0.7 467.27 0.55L467.27 0.55ZM458.17-17.05Q458.82-17.05 459.92-17.3L459.92-17.3Q460.97-17.6 461.42-17.9L461.42-17.9Q462.17-18.35 462.72-18.9L462.72-18.9Q463.27-19.55 463.27-20.4L463.27-20.4Q463.27-21.8 462.42-22.65L462.42-22.65Q461.67-23.25 460.57-23.25L460.57-23.25 458.42-23.25Q458.42-22.6 458.32-21.2L458.32-21.2 458.27-20.15Q458.17-19.15 458.17-17.05L458.17-17.05ZM504.46 0.9L503.46-0.15Q503.37-0.4 503.21-0.4L503.21-0.4 503.16-0.5Q503.12-0.5 503.04-0.58 502.96-0.65 502.91-0.65L502.91-0.65 498.96-5.15Q498.91-5.25 498.56-5.65 498.21-6.05 498.01-6.25L498.01-6.25Q497.56-6.7 497.41-6.9L497.41-6.9Q497.06-7.15 496.96-7.15L496.96-7.15Q496.66-7.15 496.66-6.8L496.66-6.8 496.66-5.75Q496.56-5.2 496.56-4.15L496.56-4.15Q496.51-3.55 496.51-2.55L496.51-2.55Q496.46-2.05 496.46-1.5L496.46-1.5 496.46-1.15 496.46-0.7Q496.46 0 496.31 0L496.31 0 496.16 0 495.91 0 495.66 0 495.46 0Q494.01 0.15 491.16 0.15L491.16 0.15 486.81 0.15 486.06 0.15 485.16 0.15 484.41 0.15 484.06 0.15 482.16-0.3 482.01-0.65 482.01-1.15Q481.96-1.45 481.96-2.4L481.96-2.4Q481.91-3.4 481.91-6.05L481.91-6.05Q481.91-7.3 481.81-7.9L481.81-7.9 481.81-9.4Q481.66-17 481.66-24.95L481.66-24.95 481.66-26.15Q481.56-26.65 481.56-27.25L481.56-27.25 481.56-27.45 481.56-27.8 481.56-28.15Q481.56-28.25 481.66-28.3L481.66-28.3Q481.76-28.7 482.04-28.88 482.31-29.05 482.76-29.15L482.76-29.15Q482.96-29.15 483.14-29.1 483.31-29.05 483.56-29.05L483.56-29.05Q484.26-28.95 484.41-28.95L484.41-28.95 492.91-28.95 496.76-28.9Q496.87-28.9 496.91-28.85 496.96-28.8 496.96-28.7L496.96-28.7Q497.16-28.2 497.16-27.65L497.16-27.65Q497.21-27.4 497.21-26.95L497.21-26.95Q497.21-24.8 497.16-23.75L497.16-23.75Q496.96-22.4 496.96-21.05L496.96-21.05Q497.56-21.05 497.91-21.3L497.91-21.3Q497.96-21.35 498.06-21.4 498.16-21.45 498.21-21.55L498.21-21.55Q498.31-21.7 498.66-21.95L498.66-21.95 499.41-22.7Q501.16-24.25 501.01-24.15L501.01-24.15 505.01-27.9Q505.56-28.35 505.99-28.7 506.41-29.05 506.71-29.3L506.71-29.3Q507.56-29.9 507.76-29.9L507.76-29.9Q508.01-29.9 508.31-29.4L508.31-29.4Q508.81-28.9 508.91-28.75L508.91-28.75Q509.37-27.9 510.16-27.13 510.96-26.35 511.16-26.15L511.16-26.15Q512.01-25.2 512.47-24.6 512.91-24 513.22-23.25L513.22-23.25 513.22-23.15Q513.22-22.4 512.06-21.25L512.06-21.25Q511.76-20.95 511.54-20.75 511.31-20.55 511.16-20.4L511.16-20.4 510.41-19.65Q510.26-19.65 510.01-19.3L510.01-19.3 508.31-17.9Q507.37-17.05 506.66-16.5L506.66-16.5 506.26-16.15 505.91-15.9Q505.51-15.75 505.41-15.65L505.41-15.65Q505.41-15.55 505.37-15.45 505.31-15.35 505.31-15.2L505.31-15.2Q505.31-14.85 505.54-14.53 505.76-14.2 506.01-13.9L506.01-13.9Q506.16-13.7 506.66-13.4L506.66-13.4Q506.66-13.4 507.16-12.9L507.16-12.9 508.01-12.15 509.66-10.7 511.12-9.35 512.81-7.7Q513.66-6.8 514.04-6.28 514.41-5.75 514.41-5.4L514.41-5.4Q514.41-4.9 514.06-4.65L514.06-4.65Q513.26-3.9 512.66-3.5L512.66-3.5Q511.66-2.8 511.16-2.4L511.16-2.4Q509.31-0.95 508.41-0.45L508.41-0.45Q508.21-0.4 507.01 0.15L507.01 0.15 506.21 0.55Q505.87 0.75 505.81 0.75L505.81 0.75Q505.21 1.05 504.87 1.05L504.87 1.05Q504.62 1.05 504.46 0.9L504.46 0.9ZM521.11-0.2Q521.01-0.2 520.96-0.4L520.96-0.4Q520.61-0.85 520.46-1.5L520.46-1.5Q520.31-1.75 520.21-2.15L520.21-2.15Q519.76-3.05 519.56-4.65L519.56-4.65Q519.36-6.95 519.36-8.3L519.36-8.3Q519.31-8.9 519.31-9.95L519.31-9.95 519.31-11.15Q519.31-12.65 519.26-13.5L519.26-13.5Q519.21-14.4 519.21-17.05L519.21-17.05Q519.21-24.15 519.51-28L519.51-28Q519.51-28.6 521.21-28.9L521.21-28.9 522.71-28.9 523.96-28.9Q526.81-28.9 528.21-28.8L528.21-28.8Q530.31-28.65 532.46-28.65L532.46-28.65Q532.96-28.65 533.21-28.7L533.21-28.7 533.96-28.7 534.21-28.5Q535.86-28.85 537.61-28.95 539.36-29.05 541.86-29.05L541.86-29.05Q541.96-29.05 542.11-28.9L542.11-28.9 543.71-28.9Q544.11-28.9 544.34-28.45 544.56-28 544.71-27.15L544.71-27.15Q544.91-26.5 545.01-25.55L545.01-25.55Q545.21-24.3 545.36-23.9L545.36-23.9Q545.36-22.5 544.86-22.5L544.86-22.5Q544.81-22.5 544.71-22.65L544.71-22.65 544.51-22.7Q544.26-22.75 543.96-22.65L543.96-22.65Q543.66-22.5 543.31-22.5L543.31-22.5Q543.01-22.5 542.81-22.65L542.81-22.65Q542.71-22.7 542.36-22.7L542.36-22.7Q541.91-22.7 541.31-22.55L541.31-22.55Q541.11-22.5 540.54-22.4 539.96-22.3 539.21-22.3L539.21-22.3Q537.06-22.3 536.11-22.2L536.11-22.2Q535.56-22.15 535.06-21.9L535.06-21.9 535.06-22Q534.86-22 534.71-21.5L534.71-21.5Q534.36-20.65 534.26-19.15L534.26-19.15Q534.21-18.7 534.21-18.15L534.21-18.15Q534.21-17.6 534.39-17.4 534.56-17.2 534.96-17.2L534.96-17.2Q535.26-17.2 535.46-17.4L535.46-17.4Q535.56-17.4 535.71-17.35 535.86-17.3 535.96-17.2L535.96-17.2 540.21-17.2Q540.26-17.3 540.36-17.35 540.46-17.4 540.56-17.4L540.56-17.4Q541.06-17.4 541.31-17.25L541.31-17.25Q541.61-17.1 542.51-16.95L542.51-16.95Q543.01-16.95 543.21-16.65L543.21-16.65Q543.46-16.3 543.46-16L543.46-16 544.51-12.7Q544.66-11.9 543.01-11.65L543.01-11.65Q542.06-11.45 539.36-11.45L539.36-11.45 537.21-11.45 535.71-11.45Q535.01-11.45 534.66-11.38 534.31-11.3 534.21-11L534.21-11Q534.01-10.75 534.01-10.2L534.01-10.2 534.01-10Q534.01-9.75 534.06-9.65L534.06-9.65 534.01-8.55Q533.96-8.2 533.96-7.5L533.96-7.5 533.96-7 533.96-6.55 533.96-6.25Q536.21-6.25 538.56-6.4L538.56-6.4Q540.86-6.55 543.11-6.55L543.11-6.55Q543.26-6.55 543.36-6.33 543.46-6.1 543.46-5.8L543.46-5.8Q543.56-5.5 543.56-5.15L543.56-5.15Q543.66-4.4 543.86-3.75L543.86-3.75 544.21-2.3 544.21-1.3 544.21-1.15 544.21-0.75 543.81-0.4 543.46-0.4 543.31-0.4Q542.76-0.4 542.61-0.45L542.61-0.45Q542.46-0.55 542.26-0.55L542.26-0.55Q542.16-0.5 541.96-0.4 541.76-0.3 541.61-0.2L541.61-0.2 541.61-0.45 541.01-0.4 540.26-0.4Q540.06-0.4 539.96-0.5L539.96-0.5 539.56-0.55Q537.71-0.55 536.96-0.2L536.96-0.2 521.11-0.2ZM567.86 0.15L565.41 0.15 563.11 0.15 560.51 0.15 557.21 0.15Q556.76-0.55 556.61-2.4L556.61-2.4Q556.41-4.05 556.41-7.2L556.41-7.2 556.46-12.7Q556.51-14.7 556.51-19.05L556.51-19.05 556.36-19.2 551.41-19.2Q550.31-19.2 549.96-21.7L549.96-21.7Q549.76-23.05 549.76-25.65L549.76-25.65 549.76-26.3Q549.86-26.65 549.86-27.4L549.86-27.4 549.86-28.4 549.91-28.8 550.11-29 551.01-28.95 552.01-28.95Q554.21-28.95 555.36-29L555.36-29 558.61-29 559.51-29 561.21-29 563.36-29 565.51-29Q566.16-28.95 567.36-28.95L567.36-28.95 568.61-28.95Q568.81-29.05 569.26-29.05L569.26-29.05Q569.61-29.15 569.91-29.15L569.91-29.15Q570.86-29.15 571.36-29.05L571.36-29.05Q572.36-28.95 572.86-28.95L572.86-28.95 574.16-29 576.11-29Q577.61-29 578.16-28.95L578.16-28.95 578.86-28.9Q578.91-28.85 579.01-28.78 579.11-28.7 579.11-28.65L579.11-28.65 579.11-20.15Q579.11-19.85 578.78-19.5 578.46-19.15 578.16-19.05L578.16-19.05Q576.51-19.4 573.86-19.4L573.86-19.4 571.96-19.4Q571.21-19.4 570.96-17.5L570.96-17.5Q570.86-16.95 570.86-15.9L570.86-15.9 570.86-14.4Q570.86-13.4 570.91-12.9L570.91-12.9 570.91-11.5Q570.91-9.45 570.71-7.7L570.71-7.7Q570.61-6.4 570.61-5.8L570.61-5.8Q570.51-5.2 570.51-4.15L570.51-4.15Q570.51-2.65 570.41-1.65L570.41-1.65Q570.36-0.1 569.26 0L569.26 0Q568.06 0.15 567.86 0.15L567.86 0.15ZM584.91 0.15Q584.16 0.15 583.91-0.75L583.91-0.75Q583.76-1.25 583.76-2.55L583.76-2.55Q583.76-6.4 583.66-9.25L583.66-9.25Q583.51-13.6 583.51-18.3L583.51-18.3 583.51-27.9Q583.51-28.3 583.88-28.65 584.26-29 584.66-29L584.66-29Q588.26-29 589.66-28.95L589.66-28.95 593.31-28.9Q594.81-28.9 598.31-29L598.31-29Q600.11-29.05 604.26-29.05L604.26-29.05Q607.31-29.05 609.51-28.3L609.51-28.3Q612.31-27.4 614.26-25.4L614.26-25.4Q616.26-23 616.26-19.05L616.26-19.05Q616.26-12.55 612.91-9.45L612.91-9.45Q609.86-6.7 604.06-6.7L604.06-6.7 598.11-6.7Q598.11-5.2 598.01-4.9L598.01-4.9Q598.01-4.55 597.96-4.4 597.91-4.25 597.91-4.2L597.91-4.2Q597.91-4.05 598.01-3.9L598.01-3.9 598.01-3.2 598.11-2.55 598.11-2.2Q598.11-0.85 597.51-0.3L597.51-0.3Q597.26-0.1 596.78-0.05 596.31 0 595.76 0L595.76 0 593.06 0 591.66 0.05Q589.56 0.15 588.26 0.15L588.26 0.15 584.91 0.15ZM599.31-11.95L600.51-11.95Q601.31-11.95 601.81-13.65L601.81-13.65Q602.16-14.8 602.36-17.2L602.36-17.2Q602.41-18.4 602.41-20L602.41-20 602.41-20.45Q602.41-21.55 602.16-22.55L602.16-22.55Q601.91-24.05 601.31-24.55L601.31-24.55Q600.96-24.9 600.51-24.9L600.51-24.9Q600.11-24.9 599.81-24.4L599.81-24.4Q599.26-23.35 599.01-20.9L599.01-20.9Q598.76-19.5 598.76-18.5L598.76-18.5Q598.51-16.2 598.51-12.05L598.51-12.05Q598.51-12.05 598.58-12.03 598.66-12 598.76-12L598.76-12Q598.81-11.95 599.31-11.95L599.31-11.95ZM635.05 0.3L634.35 0.25 633.7 0.15 632.9 0.15Q632.15 0.05 630.3-0.05L630.3-0.05Q629.9-0.05 629.55-0.1 629.2-0.15 628.9-0.15L628.9-0.15 627.8-0.15 627.3-0.2Q625.7-0.2 624.95-0.15L624.95-0.15Q624.2-0.05 622.6-0.05L622.6-0.05 621.6-0.05 620.7 0 620.55-0.2 620.55-0.75 620.55-2 620.55-3.3 620.55-4.15 620.55-7.55Q620.55-8.75 620.45-9.3L620.45-9.3 620.45-10.5 620.65-12.65Q620.8-14.65 620.8-18.4L620.8-18.4Q620.9-24.45 621.55-27.15L621.55-27.15Q621.9-28.6 622.7-29L622.7-29 628.55-28.95Q629.3-28.9 630.7-28.9L630.7-28.9 633.1-28.9Q633.35-28.85 634.03-28.8 634.7-28.75 635.05-28.55L635.05-28.55Q635.35-28.3 635.48-27.88 635.6-27.45 635.6-26.65L635.6-26.65 635.55-26.25 635.55-25.65Q635.4-25.3 635.4-24.95L635.4-24.95Q635.3-24.55 635.35-24.15L635.35-24.15 635.35-23.4Q635.4-23.15 635.4-22.7L635.4-22.7 635.45-22.3 635.45-21.15 635.5-19.55Q635.55-19.05 635.55-18.15L635.55-18.15Q635.65-17.45 635.8-17.2L635.8-17.2Q635.8-16.85 635.75-16.45 635.7-16.05 635.7-15.65L635.7-15.65Q635.65-15.05 635.65-13.85L635.65-13.85Q635.65-12.7 635.7-12.15L635.7-12.15Q635.7-11.35 635.95-10.5L635.95-10.5Q636.45-10.3 637.1-10.3L637.1-10.3Q638.75-10.3 640.53-10.35 642.3-10.4 643.7-10.65L643.7-10.65Q644-10.6 644.28-10.25 644.55-9.9 644.55-9.65L644.55-9.65 644.2-1.05Q644.1-0.75 643.8-0.65L643.8-0.65Q642.95-0.25 641.45-0.15L641.45-0.15Q639.45 0.15 638.8 0.15L638.8 0.15 637.95 0.15Q636.95 0.15 636.45 0.2L636.45 0.2Q635.45 0.3 635.05 0.3L635.05 0.3ZM649.3 0.05Q648.35 0.05 648.55-1.65L648.55-1.65Q648.55-2.25 648.8-3L648.8-3Q648.8-3.35 648.85-3.58 648.9-3.8 648.9-3.95L648.9-3.95Q650.05-9.4 651.45-14.7L651.45-14.7 654.85-28Q654.85-28.1 655-28.25 655.15-28.4 655.3-28.5L655.3-28.5 655.65-28.5Q656.25-28.5 656.6-28.65L656.6-28.65Q656.9-28.7 657.65-28.7L657.65-28.7Q658.85-28.7 659.45-28.65L659.45-28.65Q660.35-28.5 661.3-28.5L661.3-28.5 663.9-28.55Q664.3-28.65 664.85-28.65L664.85-28.65 667.05-28.75 668.7-28.75Q669.65-28.75 670.55-28.7L670.55-28.7 671.95-28.7Q672.45-28.65 673.4-28.65L673.4-28.65 675.3-28.65Q675.45-28.65 675.6-28.6 675.75-28.55 675.85-28.5L675.85-28.5Q676.05-28.4 676.35-28.4L676.35-28.4 676.8-28.4Q677.15-28.15 677.15-27.9L677.15-27.9 680.7-14.7Q682.35-8.35 683.3-3.95L683.3-3.95Q683.3-3.7 683.45-3L683.45-3Q683.65-2 683.65-1.4L683.65-1.4Q683.65-1.05 683.55-0.45L683.55-0.45Q683.3 0.05 682.85 0.05L682.85 0.05 682.3 0.05Q681.65 0.05 681.3 0L681.3 0 680.2 0 679.15 0 678.3 0Q677.95 0 677.9-0.05L677.9-0.05 675.15-0.05 675.1-0.15Q675-0.25 674.8-0.25L674.8-0.25 674.65-0.15Q674.65-0.05 674.55-0.05L674.55-0.05 674.4-0.05 674.05-0.05Q673.8-0.15 673.15-0.15L673.15-0.15Q671.95-0.25 671.15-0.25L671.15-0.25Q670.6-1.4 669.85-5.3L669.85-5.3Q668.8-5.15 667.45-5.15L667.45-5.15 666.15-5.15 664.9-5.15Q664.7-4.4 664.65-3.9L664.65-3.9Q664.6-3.65 664.25-2.2 663.9-0.75 663.6-0.25L663.6-0.25 663.3-0.15Q663.15-0.1 663.05-0.08 662.95-0.05 662.95-0.05L662.95-0.05 662.85-0.05Q662.55-0.05 662.45-0.15L662.45-0.15Q662.25-0.25 662.2-0.25L662.2-0.25 660.3-0.15 658.9-0.15Q658.65-0.1 658.5-0.08 658.35-0.05 658.3-0.05L658.3-0.05 654.3-0.05 653.9-0.05Q653.45 0 652.05 0L652.05 0 650.85 0Q650.55 0.05 649.9 0.05L649.9 0.05 649.3 0.05ZM669.4-10.65Q669.1-12.35 669.05-12.65L669.05-12.65 668.65-15.05Q668.55-15.75 668.45-16.32 668.35-16.9 668.3-17.4L668.3-17.4Q668.15-18 668.08-18.53 668-19.05 667.9-19.5L667.9-19.5Q667.85-19.8 667.8-20.28 667.75-20.75 667.65-20.95L667.65-20.95 667.55-21.55Q667.55-21.75 667.45-21.9L667.45-21.9 667.4-22.2Q667.3-21.9 667.3-21.9L667.3-21.9 667.3-21.7 667.3-21.55Q667.3-21.5 667.25-21.38 667.2-21.25 667.15-20.95L667.15-20.95Q667.1-20.7 667.05-20.33 667-19.95 666.9-19.5L666.9-19.5 666.55-17.45 666.15-15.15 666-14.05Q665.9-13.65 665.8-12.75L665.8-12.75Q665.35-10.5 665.4-10.7L665.4-10.7 667.6-10.7Q667.65-10.75 667.75-10.83 667.85-10.9 667.9-10.9L667.9-10.9 668.05-10.9Q668.3-10.9 668.48-10.85 668.65-10.8 668.8-10.75L668.8-10.75Q669.1-10.65 669.4-10.65L669.4-10.65ZM703.95 1.2Q699.55 1.2 696.7 0.4L696.7 0.4Q692.9-0.65 690.8-3.65L690.8-3.65Q688.45-7 688.45-13.4L688.45-13.4Q688.45-17.3 689.5-20.43 690.55-23.55 692.55-25.7L692.55-25.7Q694.55-27.8 697.2-28.9 699.85-30 702.95-30L702.95-30Q708.15-30 713.75-26.75L713.75-26.75 713.1-21.15 711.95-21.4Q711.75-21.45 710.4-21.75 709.05-22.05 707.95-22.05L707.95-22.05Q705.6-22.05 704.45-20.45L704.45-20.45Q702.95-18.45 702.95-14L702.95-14Q702.95-10.35 704-8.5L704-8.5Q705-6.95 706.7-6.95L706.7-6.95Q707.9-6.95 709.5-7.75L709.5-7.75Q711.05-8.5 712.5-9.5L712.5-9.5 713-2.4Q711.25-0.75 708.7 0.2L708.7 0.2Q706.4 1.2 703.95 1.2L703.95 1.2ZM720.8-0.2Q720.7-0.2 720.65-0.4L720.65-0.4Q720.3-0.85 720.15-1.5L720.15-1.5Q720-1.75 719.9-2.15L719.9-2.15Q719.45-3.05 719.25-4.65L719.25-4.65Q719.05-6.95 719.05-8.3L719.05-8.3Q719-8.9 719-9.95L719-9.95 719-11.15Q719-12.65 718.95-13.5L718.95-13.5Q718.9-14.4 718.9-17.05L718.9-17.05Q718.9-24.15 719.2-28L719.2-28Q719.2-28.6 720.9-28.9L720.9-28.9 722.4-28.9 723.65-28.9Q726.5-28.9 727.9-28.8L727.9-28.8Q730-28.65 732.15-28.65L732.15-28.65Q732.65-28.65 732.9-28.7L732.9-28.7 733.65-28.7 733.9-28.5Q735.55-28.85 737.3-28.95 739.05-29.05 741.55-29.05L741.55-29.05Q741.65-29.05 741.8-28.9L741.8-28.9 743.4-28.9Q743.8-28.9 744.02-28.45 744.25-28 744.4-27.15L744.4-27.15Q744.6-26.5 744.7-25.55L744.7-25.55Q744.9-24.3 745.05-23.9L745.05-23.9Q745.05-22.5 744.55-22.5L744.55-22.5Q744.5-22.5 744.4-22.65L744.4-22.65 744.2-22.7Q743.95-22.75 743.65-22.65L743.65-22.65Q743.35-22.5 743-22.5L743-22.5Q742.7-22.5 742.5-22.65L742.5-22.65Q742.4-22.7 742.05-22.7L742.05-22.7Q741.6-22.7 741-22.55L741-22.55Q740.8-22.5 740.22-22.4 739.65-22.3 738.9-22.3L738.9-22.3Q736.75-22.3 735.8-22.2L735.8-22.2Q735.25-22.15 734.75-21.9L734.75-21.9 734.75-22Q734.55-22 734.4-21.5L734.4-21.5Q734.05-20.65 733.95-19.15L733.95-19.15Q733.9-18.7 733.9-18.15L733.9-18.15Q733.9-17.6 734.07-17.4 734.25-17.2 734.65-17.2L734.65-17.2Q734.95-17.2 735.15-17.4L735.15-17.4Q735.25-17.4 735.4-17.35 735.55-17.3 735.65-17.2L735.65-17.2 739.9-17.2Q739.95-17.3 740.05-17.35 740.15-17.4 740.25-17.4L740.25-17.4Q740.75-17.4 741-17.25L741-17.25Q741.3-17.1 742.2-16.95L742.2-16.95Q742.7-16.95 742.9-16.65L742.9-16.65Q743.15-16.3 743.15-16L743.15-16 744.2-12.7Q744.35-11.9 742.7-11.65L742.7-11.65Q741.75-11.45 739.05-11.45L739.05-11.45 736.9-11.45 735.4-11.45Q734.7-11.45 734.35-11.38 734-11.3 733.9-11L733.9-11Q733.7-10.75 733.7-10.2L733.7-10.2 733.7-10Q733.7-9.75 733.75-9.65L733.75-9.65 733.7-8.55Q733.65-8.2 733.65-7.5L733.65-7.5 733.65-7 733.65-6.55 733.65-6.25Q735.9-6.25 738.25-6.4L738.25-6.4Q740.55-6.55 742.8-6.55L742.8-6.55Q742.95-6.55 743.05-6.33 743.15-6.1 743.15-5.8L743.15-5.8Q743.25-5.5 743.25-5.15L743.25-5.15Q743.35-4.4 743.55-3.75L743.55-3.75 743.9-2.3 743.9-1.3 743.9-1.15 743.9-0.75 743.5-0.4 743.15-0.4 743-0.4Q742.45-0.4 742.3-0.45L742.3-0.45Q742.15-0.55 741.95-0.55L741.95-0.55Q741.85-0.5 741.65-0.4 741.45-0.3 741.3-0.2L741.3-0.2 741.3-0.45 740.7-0.4 739.95-0.4Q739.75-0.4 739.65-0.5L739.65-0.5 739.25-0.55Q737.4-0.55 736.65-0.2L736.65-0.2 720.8-0.2Z" opacity="1" transform="matrix(1,0,0,1,0,0)" fill="#e6b17e" class="undefined-text-1" data-fill-palette-color="secondary" id="text-1"></path></svg></g></svg></g></svg></g></svg></g><g><svg viewBox="0 0 175.81371931907086 249.98171718712206" height="249.98171718712206" width="175.81371931907086"><g><svg xmlns="http://www.w3.org/2000/svg" xmlns:xlink="http://www.w3.org/1999/xlink" version="1.0" x="0" y="0" viewBox="17.59719467163086 5 63.125003814697266 89.754638671875" enable-background="new 0 0 100 100" xml:space="preserve" height="249.98171718712206" width="175.81371931907086" class="icon-icon-0" data-fill-palette-color="accent" id="icon-0"><path d="M43.568 31.11c0 3.954 3.204 7.152 7.152 7.152 3.951 0 7.155-3.198 7.155-7.152 0-3.947-3.204-7.155-7.155-7.155C46.773 23.955 43.568 27.163 43.568 31.11z" fill="#e6b17e" data-fill-palette-color="accent"></path><path d="M74.435 39.845h-7.535l-26.62-0.003H23.487h-5.89c0 3.344 2.605 5.998 5.89 6.2v0.042h18.167v21.678L27.839 81.577l3.825 3.832 3.462 3.463 5.887 5.883c3.253-3.253 2.912-8.18-0.339-11.431l-2.263-2.262 9.324-9.321 1.66-1.66h4.69l-2.911 2.908-8.585 8.588 3.828 3.832 3.459 3.463 5.886 5.883c3.254-3.253 2.912-8.18-0.334-11.431l-2.267-2.262 5.394-5.391 1.224-1.224V66.922v-2.535V46.084h8.871 5.785 6.287C80.722 42.607 77.908 39.845 74.435 39.845z" fill="#e6b17e" data-fill-palette-color="accent"></path><path d="M49.315 9.554c14.76 0 26.776 12.016 26.776 26.776h4.554C80.645 19.052 66.589 5 49.315 5c-17.278 0-31.334 14.052-31.334 31.33h4.557C22.538 21.57 34.551 9.554 49.315 9.554z" fill="#e6b17e" data-fill-palette-color="accent"></path></svg></g></svg></g></svg></g></svg><rect width="395.5199999999999" height="167.96800053858846" fill="none" stroke="none" visibility="hidden"></rect></g></svg></g></svg>